HIERARCHY
ROOT Hips
{
  OFFSET 5.70366 102.999 -1.77653
  CHANNELS 6 Xposition Yposition Zposition Zrotation Xrotation Yrotation
  JOINT RightUpLeg
  {
    OFFSET -8.9458 -8.66707 0.101652
    CHANNELS 3 Zrotation Xrotation Yrotation
    JOINT RightLeg
    {
      OFFSET 0 -44.4227 1.3727
      CHANNELS 3 Zrotation Xrotation Yrotation
      JOINT RightFoot
      {
        OFFSET 0.253549 -42.0924 -1.46059
        CHANNELS 3 Zrotation Xrotation Yrotation
        JOINT RightToes
        {
          OFFSET 0.04 -4.41509 8.4991
          CHANNELS 3 Zrotation Xrotation Yrotation
          End Site
          {
            OFFSET -0.08 -0.137448 9.77979
          }
        }
      }
    }
  }
  JOINT Spine
  {
    OFFSET 0 11.8905 0
    CHANNELS 3 Zrotation Xrotation Yrotation
    JOINT Spine1
    {
      OFFSET 0 25.6574 0.127663
      CHANNELS 3 Zrotation Xrotation Yrotation
      JOINT HEad
      {
        OFFSET 0 8.73416 0.011341
        CHANNELS 3 Zrotation Xrotation Yrotation
        End Site
        {
          OFFSET -0.29 12.7742 2.51395
        }
      }
      JOINT LeftShoulder1
      {
        OFFSET 8.99 -0.362252 -0.22
        CHANNELS 3 Zrotation Xrotation Yrotation
        JOINT LeftArm
        {
          OFFSET 10.2827 -0.00337999 0.322123
          CHANNELS 3 Zrotation Xrotation Yrotation
          JOINT LeftForeArm
          {
            OFFSET 26.2597 0.099144 -1.42434
            CHANNELS 3 Zrotation Xrotation Yrotation
            JOINT LeftHand
            {
              OFFSET 22.0902 0.085362 1.02216
              CHANNELS 3 Zrotation Xrotation Yrotation
              End Site
              {
                OFFSET 13.419 -0.6 1.50291
              }
            }
          }
        }
      }
      JOINT RightShoulder
      {
        OFFSET -8.99 -0.362252 -0.22
        CHANNELS 3 Zrotation Xrotation Yrotation
        JOINT RightArm
        {
          OFFSET -10.2827 -0.00338 0.322123
          CHANNELS 3 Zrotation Xrotation Yrotation
          JOINT RightForeArm
          {
            OFFSET -26.364 0.099144 -1.42434
            CHANNELS 3 Zrotation Xrotation Yrotation
            JOINT RightHand
            {
              OFFSET -22.0324 0.085362 1.02216
              CHANNELS 3 Zrotation Xrotation Yrotation
              End Site
              {
                OFFSET -13.3284 -0.6 1.50291
              }
            }
          }
        }
      }
    }
  }
  JOINT LeftUpLeg
  {
    OFFSET 8.9458 -8.66707 0.101652
    CHANNELS 3 Zrotation Xrotation Yrotation
    JOINT LeftLeg
    {
      OFFSET 0 -44.4227 1.3727
      CHANNELS 3 Zrotation Xrotation Yrotation
      JOINT LeftFoot
      {
        OFFSET -0.253549 -42.0924 -1.46059
        CHANNELS 3 Zrotation Xrotation Yrotation
        JOINT LeftToes
        {
          OFFSET -0.04 -4.41509 8.4991
          CHANNELS 3 Zrotation Xrotation Yrotation
          End Site
          {
            OFFSET 0.08 -0.047448 9.77979
          }
        }
      }
    }
  }
}
MOTION
Frames:	16
Frame Time:	0.0416667
-86.8008 100.17 25.2964 -4.86342 -0.973141 -135.93 -1.40114 -10.3384 4.65292 -0.34248 60.997 4.94424 3.56496 6.34601 -0.502702 0.0462048 0.000530889 0.662642 -4.28896 10.3269 1.37502 -3.41419 -2.46963 1.22909 4.78962 6.85386 -5.19986 -29.796 -2.91798 11.7916 -44.5877 -32.3302 -4.16921 -1.30915 56.1384 -6.55505 2.75226 9.7297 -4.56811 39.6964 0.854791 -2.31247 37.5085 -2.92665 5.28534 -2.50286 29.4991 26.8872 -2.44112 9.74452 5.79874 -6.39226 -18.1879 -0.0950231 0.61423 25.0964 15.0332 4.88736 -2.00845 -0.245952 -1.31646e-009 8.75232e-006 -1.47016e-008 
-89.7267 100.473 23.4564 -5.13009 -0.832089 -137.257 -1.73383 -16.1704 4.61175 -0.710943 67.393 1.8582 0.186445 5.69313 -0.10911 0.0462048 0.000530889 0.662642 -5.46529 10.7714 0.965045 -2.41908 -2.76524 0.513235 4.20925 7.57451 -3.64903 -29.4251 -2.80657 11.5638 -48.8053 -29.7653 -9.12934 -0.515768 52.8815 -10.2472 2.78569 9.7075 -5.82963 40.5991 0.720034 -2.62706 37.3496 -12.8496 2.76973 -1.09448 38.6536 18.7055 -1.16443 9.87192 3.43377 -6.97052 -15.8037 0.00139152 0.721431 25.472 16.3766 4.58037 -4.33918 -0.123097 -1.31646e-009 8.75232e-006 -1.47016e-008 
-92.7135 100.937 21.5214 -4.9787 -0.329813 -138.643 -1.21076 -21.069 5.14371 -1.01261 68.6367 -1.06306 -2.76256 3.38428 0.167575 0.0462048 0.000530889 0.662642 -5.74467 11.141 0.495619 -1.39988 -3.19836 -0.120911 3.89236 8.17319 -2.02169 -29.1732 -2.74395 11.4427 -50.5605 -22.6715 -12.4927 -0.204471 43.7287 -15.0973 3.58874 9.58801 -7.65962 40.6151 0.666176 -2.7416 35.692 -23.046 -1.17524 -0.141814 46.9206 12.6073 -0.528771 9.91314 1.63277 -7.29758 -12.7673 -0.189849 1.14877 24.6404 18.1006 4.27647 -6.26056 -0.0302093 -1.31646e-009 8.75232e-006 -1.47016e-008 
-95.6737 101.224 19.4684 -4.80455 0.0596476 -140.309 -0.55293 -24.8673 6.36905 -0.966554 65.3816 -1.94716 -2.15003 2.0969 0.0763236 0.0462048 0.000530889 0.662642 -6.13844 11.2125 0.0642836 -0.539492 -3.45313 -0.647188 3.59086 8.6635 -0.0888228 -28.7982 -2.68634 11.36 -49.3864 -10.7339 -14.3138 0.44501 30.5331 -21.6563 4.60014 9.4113 -9.66847 40.1875 0.643474 -2.78047 32.7931 -25.4004 -5.9322 -0.195334 47.511 9.69386 -0.147119 9.92645 0.309141 -7.61488 -9.74606 0.19108 1.5487 23.6189 19.4444 4.15183 -7.7991 0.0369396 -1.31646e-009 8.75232e-006 -1.47016e-008 
-98.5675 101.43 17.3064 -4.54776 0.261864 -142.021 0.0663178 -27.2856 7.55572 -0.740809 58.0744 -1.55842 -0.968697 0.493625 -0.0490422 0.0462048 0.000530889 0.662642 -6.35451 11.0286 -0.376652 0.0315642 -3.61579 -1.04369 3.64904 9.14701 1.72109 -28.4181 -2.65286 11.3456 -48.4847 -7.37268 -16.0723 1.36227 27.0209 -29.1164 4.90377 9.31888 -11.2188 39.5879 0.571406 -2.92354 29.4773 -25.5488 -10.8236 -0.628423 46.378 9.60183 0.0723066 9.93189 -0.259786 -7.88372 -6.72548 0.809445 1.68378 22.1936 20.7076 4.02201 -9.27288 0.0981264 -1.31646e-009 8.75232e-006 -1.47016e-008 
-101.343 101.485 15.1061 -4.16069 0.291246 -143.293 0.25148 -28.0711 7.69927 -0.573754 46.7944 -1.63014 -0.311648 -0.241201 -0.102424 0.0462048 0.000530889 0.662642 -6.39112 10.9543 -0.902896 0.62676 -3.98298 -1.48064 3.99234 9.47054 3.17116 -28.1964 -2.63487 11.3414 -48.0903 -8.11884 -17.4816 1.68051 26.771 -35.6712 5.52997 9.16284 -12.8505 38.6636 0.47818 -3.11247 26.6199 -25.1055 -15.2059 -1.17611 44.7556 10.763 0.19332 9.94119 0.123139 -8.19763 -4.02322 1.16784 1.74119 20.8542 21.8311 3.70535 -10.8843 0.156254 -1.31646e-009 8.75232e-006 -1.47016e-008 
-104.001 101.397 12.848 -3.74371 0.242357 -144.002 0.107876 -27.1639 6.71491 -0.523196 32.6942 -3.39082 0.36572 1.47502 -0.140992 0.0462048 0.000530889 0.662642 -6.2274 10.8743 -1.36221 1.22679 -4.12574 -1.86105 4.39498 9.20875 4.00789 -27.9341 -2.55665 11.1709 -48.1363 -8.64532 -18.4778 1.59752 26.1061 -40.8568 7.01507 8.84319 -14.4194 37.7644 0.405158 -3.26424 24.4823 -24.4638 -18.715 -1.74144 42.6838 12.2575 0.302302 9.95567 0.952421 -8.41899 -1.59923 1.43055 1.70737 19.8521 22.297 3.33635 -12.3019 0.196656 -1.31646e-009 8.75232e-006 -1.47016e-008 
-106.592 101.251 10.4456 -3.5022 0.313067 -144.505 0.0706086 -24.9513 4.27781 -0.704683 18.434 -4.1367 1.0249 2.9802 -0.197122 0.0462048 0.000530889 0.662642 -5.70316 10.667 -1.50054 1.49946 -3.74379 -1.93587 4.88331 8.67176 4.04424 -27.7766 -2.48351 10.9911 -48.4679 -8.84432 -19.6209 2.38177 26.415 -44.8856 7.93236 8.64099 -15.1274 37.1 0.391719 -3.28756 23.1858 -23.934 -21.2994 -2.21927 40.7493 13.5674 0.216526 9.95927 1.61265 -8.57458 1.11246 1.7609 1.59621 18.8343 22.4389 2.81194 -13.5261 0.21311 -1.31646e-009 8.75232e-006 -1.47016e-008 
-109.186 100.907 7.73242 -3.71106 0.478672 -144.982 0.0645498 -22.7099 1.06757 -0.260243 8.78694 -1.10756 2.91083 1.63135 -0.342103 0.0462048 0.000530889 0.662642 -5.56593 10.4437 -1.41006 1.7395 -3.3999 -1.86204 5.22829 8.82636 3.84341 -28.0057 -2.5252 11.0646 -48.2645 -8.18451 -20.6091 3.24213 26.9138 -46.8272 7.58952 8.70113 -15.1438 36.5445 0.454744 -3.13502 22.7517 -23.8722 -22.3268 -2.34646 40.4066 13.671 0.0526932 9.95857 1.73196 -8.89066 3.98076 2.29603 1.37603 18.5465 22.3084 1.47868 -15.0079 0.171355 -1.31646e-009 8.75232e-006 -1.47016e-008 
-111.759 100.532 4.68885 -3.9237 0.636495 -145.19 0.420011 -21.8313 0.975808 0.246483 7.08112 0.708226 3.23892 0.752527 -0.3601 0.0462048 0.000530889 0.662642 -5.64656 9.94786 -1.34928 2.11202 -3.08319 -1.90643 5.25026 9.77863 3.80877 -28.1659 -2.5505 11.1047 -47.7451 -6.84982 -20.4815 3.25134 26.9688 -46.457 6.82319 8.85084 -14.9082 36.5414 0.453999 -3.13702 22.8481 -24.2099 -21.2468 -2.002 41.9472 12.4866 0.184436 9.95768 1.23187 -8.94585 6.57376 2.97367 1.08423 19.0643 21.4675 -0.0883486 -15.7548 0.0741359 -1.31646e-009 8.75232e-006 -1.47016e-008 
-114.318 100.332 1.36196 -3.75685 0.845613 -144.724 1.57791 -21.7246 1.91369 -0.421649 10.3646 0.0624186 -0.332861 3.8264 -0.0628529 0.0462048 0.000530889 0.662642 -5.34831 9.21769 -1.41561 2.5484 -2.77013 -2.09898 5.01178 10.7803 3.63594 -28.4305 -2.57592 11.1226 -47.1354 -4.88772 -19.2714 2.98984 27.0099 -44.397 6.36945 8.95526 -14.4063 37.1974 0.340504 -3.40612 23.3131 -24.6054 -18.9622 -1.54974 43.8076 11.4421 0.35156 9.95415 0.592371 -8.38869 8.6104 3.53465 1.06548 20.5714 19.8711 -2.07881 -15.515 -0.0661612 -1.31646e-009 8.75232e-006 -1.47016e-008 
-116.843 100.256 -2.13576 -3.46754 1.21184 -143.552 2.49426 -21.5674 2.86957 -0.795259 14.9253 -1.89868 -4.06666 6.95286 0.435967 0.0462048 0.000530889 0.662642 -5.11171 9.02623 -1.55899 3.57789 -3.171 -2.40958 4.6722 11.4209 3.2577 -29.4324 -2.80049 11.5444 -46.2673 -1.96324 -17.6031 2.77536 27.3416 -40.4275 6.1977 9.02155 -13.6146 37.7442 0.329241 -3.43587 24.4944 -24.9225 -16.4032 -1.36099 44.7609 11.2484 0.195134 9.94418 0.407061 -6.94917 9.30436 4.42037 0.987283 24.7599 17.0067 -5.99287 -14.8988 -0.3067 -1.31646e-009 8.75232e-006 -1.47016e-008 
-119.105 100.321 -5.497 -3.15052 1.73936 -142.239 2.92246 -20.9969 2.37992 -0.531836 19.0706 -2.46569 -5.65336 5.97661 0.588594 0.0462048 0.000530889 0.662642 -4.46801 9.28426 -1.50377 4.33778 -3.52332 -2.42902 4.94302 11.4022 2.41279 -29.9676 -2.89919 11.7047 -46.167 1.43402 -15.9247 2.29902 27.7089 -34.3861 5.72555 9.15439 -12.3011 38.2097 0.428929 -3.21631 26.8352 -25.1077 -13.0946 -1.29972 44.9083 11.5991 -0.0967609 9.93228 0.73691 -4.30967 7.29704 6.92995 0.855122 33.0947 12.603 -8.60286 -10.7234 -0.162106 -1.31646e-009 8.75232e-006 -1.47016e-008 
-121.108 100.275 -8.5708 -2.69053 2.67264 -141.243 3.7679 -19.9699 1.0978 -0.401821 22.7912 -2.26019 -6.71263 2.6475 0.499717 0.0462048 0.000530889 0.662642 -1.88069 9.30074 -1.10844 3.13749 -2.54156 -1.63791 6.24839 10.641 0.584961 -29.0665 -2.54478 10.9035 -47.0523 5.12223 -14.6506 1.47564 27.3861 -27.3649 4.81381 9.3571 -10.4331 39.2444 0.405926 -3.27817 29.899 -24.4851 -8.71699 -1.36424 44.5574 13.1 -0.481264 9.91528 1.44081 -0.932709 2.53701 9.1376 0.962945 44.7181 10.7341 -5.13962 -0.830516 0.2812 -1.31646e-009 8.75232e-006 -1.47016e-008 
-122.967 99.8817 -11.3789 -2.12245 4.04018 -140.549 5.22247 -18.9066 0.244595 -0.43753 26.6267 -2.61789 -7.62203 -0.750656 0.335316 0.0462048 0.000530889 0.662642 1.72361 9.73801 -0.659628 1.3158 -1.57004 -0.437866 7.56109 9.99249 -1.38981 -28.5434 -2.29171 10.2884 -48.5747 1.41324 -13.3436 0.319966 34.2252 -20.7488 4.01754 9.5144 -8.62327 40.2637 0.379637 -3.345 32.5678 -21.2306 -4.18377 -1.82077 42.4847 16.4116 -1.19033 9.87104 2.86282 2.37993 -3.23676 10.0759 1.22621 56.4517 10.6668 0.74026 6.20646 -0.137083 -1.31646e-009 8.75232e-006 -1.47016e-008 
-124.819 99.9265 -14.1801 -1.96176 5.06259 -140.165 6.11143 -16.6813 -0.415627 -0.44042 28.1113 -2.60576 -7.8146 -3.25598 0.159893 0.0462048 0.000530889 0.662642 3.29331 10.8131 -0.174139 0.750595 -2.04453 0.380872 8.12135 10.1508 -2.45316 -29.3207 -2.47421 10.6571 -50.3408 -15.5449 -11.5698 -1.96154 53.4239 -14.233 3.35675 9.62693 -7.03597 40.5414 0.51325 -3.06392 34.0849 -13.8544 -0.273216 -2.66202 36.6104 20.9832 -2.09923 9.78738 4.87053 4.46991 -8.59572 10.0632 1.4882 64.7714 9.3806 2.97081 5.70897 -0.396587 -1.31646e-009 8.75232e-006 -1.47016e-008 
